<?xml version="1.0" encoding="iso-8859-1"?>
<!-- Generator: Adobe Illustrator 21.0.0, SVG Export Plug-In . SVG Version: 6.00 Build 0)  -->
<svg version="1.1" id="Capa_1" xmlns="http://www.w3.org/2000/svg" xmlns:xlink="http://www.w3.org/1999/xlink" x="0px" y="0px"
	 viewBox="0 0 512 512" style="enable-background:new 0 0 512 512;" xml:space="preserve">
<g>
	<path style="fill:#14A085;" d="M507.642,415.154c0.381,7.142-2.192,14.126-7.116,19.313s-11.766,8.119-18.918,8.109H99.778
		c-14.378,0-26.034-11.656-26.034-26.034V60.746H21.676C12.103,60.717,4.349,52.963,4.32,43.39V26.034
		C4.349,16.46,12.103,8.707,21.676,8.678h78.102c14.378,0,26.034,11.656,26.034,26.034v355.797h354.321
		C494.34,390.258,506.336,401.005,507.642,415.154z"/>
	<g>
		<circle style="fill:#2C3E50;" cx="125.812" cy="477.288" r="34.712"/>
		<circle style="fill:#2C3E50;" cx="446.897" cy="477.288" r="34.712"/>
	</g>
	<g>
		<path style="fill:#46B29D;" d="M73.744,43.39v17.356H56.388V43.39c0-4.793,3.885-8.678,8.678-8.678S73.744,38.597,73.744,43.39z"
			/>
		<path style="fill:#46B29D;" d="M39.032,43.39v17.356H21.676V43.39c0-4.793,3.885-8.678,8.678-8.678S39.032,38.597,39.032,43.39z"
			/>
	</g>
	<path style="fill:#D25627;" d="M334.083,69.424c-4.793,0-8.678-3.885-8.678-8.678V34.712c0-9.585-7.771-17.356-17.356-17.356
		h-34.712c-9.585,0-17.356,7.771-17.356,17.356v26.034c0,4.793-3.885,8.678-8.678,8.678c-4.793,0-8.678-3.885-8.678-8.678V34.712
		C238.626,15.541,254.167,0,273.337,0h34.712c19.171,0,34.712,15.541,34.712,34.712v26.034
		C342.761,65.538,338.876,69.424,334.083,69.424z"/>
	<g>
		<path style="fill:#D1D4D1;" d="M368.795,251.661c0-4.793,3.885-8.678,8.678-8.678h60.746c4.793,0,8.678,3.885,8.678,8.678
			c0,4.793-3.885,8.678-8.678,8.678h-60.746C372.68,260.339,368.795,256.454,368.795,251.661z"/>
		<path style="fill:#D1D4D1;" d="M368.795,338.441c0-4.793,3.885-8.678,8.678-8.678h60.746c4.793,0,8.678,3.885,8.678,8.678
			s-3.885,8.678-8.678,8.678h-60.746C372.68,347.119,368.795,343.233,368.795,338.441z"/>
	</g>
	<path style="fill:#FF5364;" d="M394.829,225.627v138.847c0,14.378-11.656,26.034-26.034,26.034H212.592
		c-14.378,0-26.034-11.656-26.034-26.034V225.627c0-14.378,11.656-26.034,26.034-26.034h156.203
		C383.173,199.593,394.829,211.249,394.829,225.627z"/>
	<path style="fill:#802D40;" d="M420.863,347.119V242.983c0-9.585,7.771-17.356,17.356-17.356c9.585,0,17.356,7.771,17.356,17.356
		v104.136c0,9.546-16.488,17.356-26.034,17.356h8.678C428.633,364.475,420.863,356.704,420.863,347.119z"/>
	<path style="fill:#DF4D60;" d="M334.083,355.797h-43.39V234.305h43.39c14.378,0,26.034,11.656,26.034,26.034v69.424
		C360.117,344.141,348.461,355.797,334.083,355.797z"/>
	<g>
		<path style="fill:#802D40;" d="M290.693,355.797h-34.712c-14.378,0-26.034-11.656-26.034-26.034v-69.424
			c0-14.378,11.656-26.034,26.034-26.034h34.712V355.797z"/>
		<path style="fill:#802D40;" d="M316.727,295.051c0.014-1.134,0.25-2.254,0.694-3.298c0.789-2.18,2.506-3.897,4.686-4.686
			c1.043-0.445,2.164-0.681,3.298-0.694c0.582,0.019,1.162,0.077,1.736,0.174c0.544,0.094,1.07,0.27,1.562,0.521
			c0.553,0.19,1.078,0.452,1.562,0.781c0.455,0.32,0.889,0.668,1.302,1.041c0.766,0.844,1.382,1.812,1.822,2.864
			c0.694,1.583,0.876,3.342,0.521,5.033c-0.094,0.544-0.27,1.07-0.521,1.562c-0.19,0.553-0.452,1.078-0.781,1.562l-1.041,1.302
			c-0.412,0.373-0.847,0.721-1.302,1.041c-0.484,0.329-1.009,0.591-1.562,0.781c-0.492,0.251-1.018,0.426-1.562,0.521
			c-0.574,0.097-1.154,0.155-1.736,0.174c-1.134-0.014-2.254-0.25-3.298-0.694c-1.051-0.44-2.02-1.056-2.864-1.822l-1.041-1.302
			c-0.329-0.484-0.591-1.009-0.781-1.562c-0.251-0.492-0.426-1.018-0.521-1.562C316.8,296.213,316.742,295.633,316.727,295.051z"/>
	</g>
	<path style="fill:#E57E25;" d="M377.473,112.814v52.068c0,19.171-15.541,34.712-34.712,34.712H238.626
		c-19.171,0-34.712-15.541-34.712-34.712v-52.068H377.473z"/>
	<path style="fill:#F29C1F;" d="M377.473,86.78v34.712H203.914V86.78c0-19.171,15.541-34.712,34.712-34.712h104.136
		C361.932,52.068,377.473,67.609,377.473,86.78z"/>
	<path style="fill:#E57E25;" d="M255.981,86.78v34.712h-17.356V86.78c0-4.793,3.885-8.678,8.678-8.678
		C252.096,78.102,255.981,81.987,255.981,86.78z"/>
	<g>
		<path style="fill:#D25627;" d="M238.626,121.492h17.356v26.034c0,4.793-3.885,8.678-8.678,8.678c-4.793,0-8.678-3.885-8.678-8.678
			V121.492z"/>
		<path style="fill:#D25627;" d="M342.761,121.492v26.034c0,4.793-3.885,8.678-8.678,8.678c-4.793,0-8.678-3.885-8.678-8.678
			v-26.034H342.761z"/>
	</g>
	<path style="fill:#E57E25;" d="M342.761,86.78v34.712h-17.356V86.78c0-4.793,3.885-8.678,8.678-8.678
		C338.876,78.102,342.761,81.987,342.761,86.78z"/>
</g>
<g>
</g>
<g>
</g>
<g>
</g>
<g>
</g>
<g>
</g>
<g>
</g>
<g>
</g>
<g>
</g>
<g>
</g>
<g>
</g>
<g>
</g>
<g>
</g>
<g>
</g>
<g>
</g>
<g>
</g>
</svg>
