<?xml version="1.0" encoding="iso-8859-1"?>
<!-- Generator: Adobe Illustrator 19.0.0, SVG Export Plug-In . SVG Version: 6.00 Build 0)  -->
<svg version="1.1" id="Capa_1" xmlns="http://www.w3.org/2000/svg" xmlns:xlink="http://www.w3.org/1999/xlink" x="0px" y="0px"
	 viewBox="0 0 512 512" style="enable-background:new 0 0 512 512;" xml:space="preserve">
<path style="fill:#666666;" d="M256.024,234.894H144.497c-4.269,0-7.729-3.461-7.729-7.729v-56.337
	c0-14.332,11.66-25.993,25.993-25.993h75.001c14.332,0,25.993,11.66,25.993,25.993v56.337
	C263.753,231.433,260.293,234.894,256.024,234.894z M152.226,219.436h96.069v-48.608c0-5.808-4.725-10.534-10.534-10.534h-75.001
	c-5.808,0-10.534,4.725-10.534,10.534v48.608H152.226z"/>
<path style="fill:#FFD371;" d="M318.408,196.424H82.111c-15.722,0-28.467,12.745-28.467,28.467v157.351
	c0,15.722,12.745,28.467,28.467,28.467h236.297c15.722,0,28.467-12.745,28.467-28.467V224.89
	C346.876,209.169,334.131,196.424,318.408,196.424z"/>
<path style="fill:#DEAF50;" d="M334.7,395.461H98.402c-15.722,0-28.467-12.745-28.467-28.467v-157.35
	c0-4.097,0.872-7.987,2.43-11.506c-10.922,3.98-18.72,14.456-18.72,26.753v157.351c0,15.722,12.745,28.467,28.467,28.467h236.297
	c11.626,0,21.617-6.972,26.037-16.96C341.405,394.855,338.123,395.461,334.7,395.461z"/>
<g>
	<rect x="94.802" y="196.425" style="fill:#666666;" width="36.338" height="214.285"/>
	<rect x="269.379" y="196.425" style="fill:#666666;" width="36.338" height="214.285"/>
</g>
<g>
	<rect x="94.802" y="395.458" style="fill:#333333;" width="36.338" height="15.247"/>
	<rect x="269.379" y="395.458" style="fill:#333333;" width="36.338" height="15.247"/>
</g>
<path style="fill:#666666;" d="M493.407,496.378H10.865C4.864,496.378,0,491.513,0,485.513v-24.397
	c0-6.001,4.864-10.865,10.865-10.865h482.541c6,0,10.865,4.864,10.865,10.865v24.397
	C504.271,491.513,499.406,496.378,493.407,496.378z"/>
<rect x="399.818" y="194.89" style="fill:#81A9C9;" width="35.544" height="255.364"/>
<path style="fill:#A6C8E8;" d="M435.36,222.042V450.25h-18.55V240.592C416.81,230.347,425.115,222.042,435.36,222.042
	L435.36,222.042z"/>
<circle style="fill:#A5E5DF;" cx="417.585" cy="110.033" r="86.681"/>
<path style="fill:#666666;" d="M445.487,78.352l-22.429-22.429c-1.449-1.45-3.415-2.264-5.465-2.264s-4.016,0.814-5.465,2.264
	l-22.429,22.429c-3.018,3.019-3.018,7.913,0,10.93c3.019,3.019,7.913,3.019,10.93,0l9.234-9.235v46.811
	c0,4.269,3.461,7.729,7.729,7.729c4.269,0,7.729-3.461,7.729-7.729V80.048l9.235,9.235c1.509,1.509,3.487,2.264,5.465,2.264
	s3.956-0.754,5.465-2.264C448.507,86.265,448.507,81.371,445.487,78.352z"/>
<path style="fill:#F74B68;" d="M488.966,159.212v0.021c-15.644,22.642-41.779,37.482-71.377,37.482
	c-29.618,0-55.754-14.84-71.398-37.502c15.634-22.662,41.779-37.502,71.398-37.502C447.197,121.71,473.342,136.55,488.966,159.212z"
	/>
<path style="fill:#428FCE;" d="M357.156,435.983H43.364c-4.269,0-7.729-3.461-7.729-7.729c0-4.269,3.461-7.729,7.729-7.729h313.791
	c4.269,0,7.729,3.461,7.729,7.729C364.885,432.522,361.424,435.983,357.156,435.983z"/>
<path style="fill:#F74B68;" d="M417.589,204.444c-52.059,0-94.411-42.353-94.411-94.411s42.353-94.411,94.411-94.411
	S512,57.975,512,110.033S469.647,204.444,417.589,204.444z M417.589,31.08c-43.535,0-78.953,35.418-78.953,78.953
	s35.418,78.953,78.953,78.953s78.953-35.418,78.953-78.953S461.123,31.08,417.589,31.08z"/>
<g>
</g>
<g>
</g>
<g>
</g>
<g>
</g>
<g>
</g>
<g>
</g>
<g>
</g>
<g>
</g>
<g>
</g>
<g>
</g>
<g>
</g>
<g>
</g>
<g>
</g>
<g>
</g>
<g>
</g>
</svg>
